<svg style="enable-background:new 0 0 512 512" viewBox="0 0 512 512" xml:space="preserve" xmlns="http://www.w3.org/2000/svg"><path d="M410.162 101.838c-50.452-50.45-132.542-50.45-182.993 0-46.407 46.408-50.123 119.582-11.157 170.28l-9.43 9.431c-6.272-2.983-14.011-1.901-19.195 3.282L72.24 399.98c-5.314 5.313-8.24 12.377-8.24 19.89s2.926 14.578 8.239 19.89c5.313 5.314 12.377 8.24 19.89 8.24s14.578-2.926 19.891-8.239L227.17 324.613c5.184-5.184 6.265-12.923 3.281-19.194l9.43-9.43c23.141 17.784 50.962 26.682 78.785 26.682 33.135 0 66.271-12.613 91.497-37.839 50.45-50.452 50.45-132.541 0-182.993zM100.086 419.872l99.235-99.236 7.956 7.956-99.235 99.235-7.956-7.955zm-7.956-7.957-7.955-7.955 99.235-99.236 7.956 7.956-99.236 99.235zm-11.935 19.89a16.767 16.767 0 0 1-4.943-11.933 16.8 16.8 0 0 1 1.656-7.265l22.487 22.486a16.8 16.8 0 0 1-7.265 1.656 16.767 16.767 0 0 1-11.935-4.944zm139.017-115.148-3.978 3.978-23.868-23.868 3.978-3.978a5.605 5.605 0 0 1 3.978-1.645c1.441 0 2.882.548 3.979 1.645l15.912 15.912a5.631 5.631 0 0 1 0 7.956zm3.979-19.89-7.955-7.956 8.047-8.047a130.256 130.256 0 0 0 3.886 4.07 130.234 130.234 0 0 0 4.069 3.885l-8.047 8.047zm179.014-19.89c-46.064 46.064-121.017 46.064-167.08 0-46.065-46.065-46.065-121.016 0-167.08 23.032-23.033 53.286-34.55 83.54-34.55s60.508 11.517 83.54 34.55c46.064 46.064 46.064 121.015 0 167.08zm23.351-83.54c0 58.94-47.95 106.891-106.891 106.891s-106.892-47.951-106.892-106.892c0-24.525 8.086-47.595 23.383-66.717a5.623 5.623 0 0 1 7.907-.88 5.625 5.625 0 0 1 .879 7.908c-13.684 17.105-20.917 37.746-20.917 59.69 0 52.736 42.904 95.64 95.64 95.64s95.64-42.904 95.64-95.64-42.904-95.64-95.64-95.64c-21.943 0-42.584 7.233-59.69 20.917a5.624 5.624 0 0 1-7.907-.88 5.625 5.625 0 0 1 .88-7.907c19.121-15.297 42.192-23.382 66.717-23.382 58.94 0 106.891 47.951 106.891 106.891z"/></svg>